<svg width="1200" height="800" viewBox="0 0 1200 800" fill="none" xmlns="http://www.w3.org/2000/svg">
  <rect width="1200" height="800" rx="48" fill="#EFF6FF"/>
  <rect x="84" y="84" width="1032" height="632" rx="36" fill="#FFFFFF"/>
  <rect x="146" y="148" width="420" height="220" rx="28" fill="#DBEAFE"/>
  <circle cx="356" cy="258" r="74" fill="#2563EB"/>
  <circle cx="356" cy="258" r="34" fill="#FFFFFF"/>
  <path d="M356 148V114M356 402V440M466 258H500M212 258H178M435 179L460 154M277 337L252 362M435 337L460 362M277 179L252 154" stroke="#1D4ED8" stroke-width="16" stroke-linecap="round"/>
  <rect x="614" y="148" width="440" height="96" rx="24" fill="#F8FAFC"/>
  <rect x="614" y="276" width="360" height="28" rx="14" fill="#CBD5E1"/>
  <rect x="614" y="324" width="308" height="28" rx="14" fill="#E2E8F0"/>
  <rect x="146" y="432" width="908" height="220" rx="28" fill="#F8FAFC"/>
  <rect x="196" y="484" width="240" height="120" rx="24" fill="#D1FAE5"/>
  <rect x="480" y="484" width="240" height="120" rx="24" fill="#DBEAFE"/>
  <rect x="764" y="484" width="240" height="120" rx="24" fill="#FEF3C7"/>
</svg>
