<svg width="1200" height="800" viewBox="0 0 1200 800" fill="none" xmlns="http://www.w3.org/2000/svg">
  <rect width="1200" height="800" rx="48" fill="#ECFEFF"/>
  <rect x="90" y="90" width="1020" height="620" rx="36" fill="#FFFFFF"/>
  <rect x="150" y="150" width="900" height="500" rx="30" fill="#F8FAFC"/>
  <rect x="150" y="150" width="900" height="78" rx="30" fill="#CFFAFE"/>
  <circle cx="208" cy="189" r="10" fill="#06B6D4"/>
  <circle cx="244" cy="189" r="10" fill="#67E8F9"/>
  <circle cx="280" cy="189" r="10" fill="#A5F3FC"/>
  <path d="M358 362 284 436 358 510M500 330 438 542M594 362 668 436 594 510" stroke="#0891B2" stroke-width="24" stroke-linecap="round" stroke-linejoin="round"/>
  <rect x="728" y="300" width="250" height="38" rx="19" fill="#A5F3FC"/>
  <rect x="728" y="366" width="196" height="38" rx="19" fill="#CFFAFE"/>
  <rect x="728" y="432" width="234" height="38" rx="19" fill="#E0F2FE"/>
  <rect x="230" y="590" width="740" height="24" rx="12" fill="#E2E8F0"/>
</svg>
