<svg width="1200" height="800" viewBox="0 0 1200 800" fill="none" xmlns="http://www.w3.org/2000/svg">
  <rect width="1200" height="800" rx="48" fill="#F5F3FF"/>
  <rect x="92" y="92" width="1016" height="616" rx="36" fill="#FFFFFF"/>
  <rect x="154" y="146" width="430" height="510" rx="30" fill="#EEF2FF"/>
  <rect x="274" y="214" width="190" height="150" rx="30" fill="#8B5CF6"/>
  <circle cx="326" cy="286" r="18" fill="#FFFFFF"/>
  <circle cx="412" cy="286" r="18" fill="#FFFFFF"/>
  <rect x="304" y="396" width="130" height="30" rx="15" fill="#FFFFFF"/>
  <path d="M370 214V168M248 286H204M490 286H534M290 480L248 542M450 480L492 542" stroke="#7C3AED" stroke-width="16" stroke-linecap="round"/>
  <rect x="628" y="146" width="418" height="120" rx="24" fill="#F8FAFC"/>
  <rect x="628" y="300" width="320" height="28" rx="14" fill="#D8B4FE"/>
  <rect x="628" y="348" width="368" height="28" rx="14" fill="#E9D5FF"/>
  <rect x="628" y="424" width="418" height="186" rx="28" fill="#F8FAFC"/>
  <circle cx="734" cy="516" r="46" fill="#C4B5FD"/>
  <rect x="810" y="476" width="180" height="24" rx="12" fill="#C4B5FD"/>
  <rect x="810" y="520" width="148" height="24" rx="12" fill="#DDD6FE"/>
  <rect x="810" y="564" width="198" height="24" rx="12" fill="#EDE9FE"/>
</svg>
